<?xml version="1.0" encoding="UTF-8" standalone="no"?>
<!-- Created with Inkscape (http://www.inkscape.org/) -->

<svg
   xmlns:dc="http://purl.org/dc/elements/1.1/"
   xmlns:cc="http://creativecommons.org/ns#"
   xmlns:rdf="http://www.w3.org/1999/02/22-rdf-syntax-ns#"
   xmlns:svg="http://www.w3.org/2000/svg"
   xmlns="http://www.w3.org/2000/svg"
   xmlns:sodipodi="http://sodipodi.sourceforge.net/DTD/sodipodi-0.dtd"
   xmlns:inkscape="http://www.inkscape.org/namespaces/inkscape"
   width="256"
   height="256"
   viewBox="0 0 67.733331 67.733331"
   version="1.1"
   id="svg8"
   inkscape:version="0.92.2 (5c3e80d, 2017-08-06)"
   sodipodi:docname="Map.svg">
  <defs
     id="defs2" />
  <sodipodi:namedview
     id="base"
     pagecolor="#ffffff"
     bordercolor="#666666"
     borderopacity="1.0"
     inkscape:pageopacity="0.0"
     inkscape:pageshadow="2"
     inkscape:zoom="1.9623932"
     inkscape:cx="54.799161"
     inkscape:cy="138.14078"
     inkscape:document-units="px"
     inkscape:current-layer="layer1"
     showgrid="true"
     units="px"
     showguides="true"
     inkscape:pagecheckerboard="true"
     inkscape:snap-page="false"
     inkscape:snap-center="false"
     inkscape:snap-grids="false"
     inkscape:snap-to-guides="true"
     inkscape:snap-object-midpoints="true"
     inkscape:window-width="1920"
     inkscape:window-height="1017"
     inkscape:window-x="-8"
     inkscape:window-y="-8"
     inkscape:window-maximized="1"
     inkscape:snap-others="true"
     inkscape:object-nodes="true"
     inkscape:snap-intersection-paths="false"
     inkscape:object-paths="true">
    <inkscape:grid
       type="xygrid"
       id="grid3709"
       spacingx="0.26458332"
       empspacing="128"
       dotted="false" />
  </sodipodi:namedview>
  <metadata
     id="metadata5">
    <rdf:RDF>
      <cc:Work
         rdf:about="">
        <dc:format>image/svg+xml</dc:format>
        <dc:type
           rdf:resource="http://purl.org/dc/dcmitype/StillImage" />
        <dc:title />
      </cc:Work>
    </rdf:RDF>
  </metadata>
  <g
     inkscape:label="Ebene 1"
     inkscape:groupmode="layer"
     id="layer1"
     transform="translate(0,-229.26668)">
    <rect
       style="fill:none;stroke-width:0.26458332"
       id="rect3717"
       width="33.866665"
       height="33.866665"
       x="0"
       y="263.13333" />
    <rect
       style="fill:none;stroke-width:0.26458332"
       id="rect3722"
       width="33.866665"
       height="33.866665"
       x="0"
       y="263.13333" />
    <rect
       style="fill:none;stroke-width:0.26458332"
       id="rect3724"
       width="67.73333"
       height="33.866665"
       x="-33.866665"
       y="263.13333" />
    <rect
       style="fill:none;stroke-width:0.26458332"
       id="rect3726"
       width="33.866665"
       height="33.866665"
       x="-33.866665"
       y="229.26668" />
    <path
       style="fill:#ffffff;fill-opacity:1;stroke:#f6ffff;stroke-width:0;stroke-linejoin:miter;stroke-miterlimit:4;stroke-dasharray:none;stroke-opacity:1"
       d="m 39.219243,246.48209 -10.705151,-4.4685 c -0.54348,-0.22684 -1.092363,0.4152 -1.092363,0.93094 v 35.90909 c 0,0.51574 0.548883,0.70409 1.092363,0.93094 l 10.705151,4.4685 c 0.543482,0.22685 1.092358,-0.4152 1.092358,-0.93094 v -35.90909 c 0,-0.51574 -0.548876,-0.70408 -1.092358,-0.93094 z"
       id="rect4549-9"
       inkscape:connector-curvature="0"
       sodipodi:nodetypes="sssssssss" />
    <path
       style="fill:#ffffff;fill-opacity:1;stroke:#f6ffff;stroke-width:0;stroke-linejoin:miter;stroke-miterlimit:4;stroke-dasharray:none;stroke-opacity:1"
       d="m 14.97972,246.48209 10.705151,-4.4685 c 0.54348,-0.22686 1.092363,0.4152 1.092363,0.93094 v 35.90909 c 0,0.51574 -0.548883,0.70409 -1.092363,0.93094 l -10.705151,4.4685 c -0.543481,0.22685 -1.092357,-0.4152 -1.092357,-0.93094 v -35.9091 c 0,-0.51573 0.548876,-0.70407 1.092357,-0.93093 z"
       id="rect4549-9-4"
       inkscape:connector-curvature="0"
       sodipodi:nodetypes="sssssssss" />
    <path
       style="fill:#ffffff;fill-opacity:1;stroke:#f6ffff;stroke-width:0;stroke-linejoin:miter;stroke-miterlimit:4;stroke-dasharray:none;stroke-opacity:1"
       d="m 42.048453,246.26579 10.705152,-4.4685 c 0.543479,-0.22685 1.092362,0.4152 1.092362,0.93094 v 35.90909 c 0,0.51575 -0.548883,0.70409 -1.092362,0.93094 l -10.705152,4.4685 c -0.54348,0.22685 -1.092356,-0.4152 -1.092356,-0.93094 v -35.90909 c 0,-0.51575 0.548876,-0.70408 1.092356,-0.93094 z"
       id="rect4549-9-4-6"
       inkscape:connector-curvature="0"
       sodipodi:nodetypes="sssssssss" />
  </g>
</svg>
