<?xml version="1.0" encoding="UTF-8" standalone="no"?>
<!-- Created with Inkscape (http://www.inkscape.org/) -->

<svg
   xmlns:dc="http://purl.org/dc/elements/1.1/"
   xmlns:cc="http://creativecommons.org/ns#"
   xmlns:rdf="http://www.w3.org/1999/02/22-rdf-syntax-ns#"
   xmlns:svg="http://www.w3.org/2000/svg"
   xmlns="http://www.w3.org/2000/svg"
   xmlns:sodipodi="http://sodipodi.sourceforge.net/DTD/sodipodi-0.dtd"
   xmlns:inkscape="http://www.inkscape.org/namespaces/inkscape"
   width="256"
   height="256"
   viewBox="0 0 67.733331 67.733331"
   version="1.1"
   id="svg8"
   inkscape:version="0.92.2 (5c3e80d, 2017-08-06)"
   sodipodi:docname="Settings.svg">
  <defs
     id="defs2" />
  <sodipodi:namedview
     id="base"
     pagecolor="#ffffff"
     bordercolor="#666666"
     borderopacity="1.0"
     inkscape:pageopacity="0.0"
     inkscape:pageshadow="2"
     inkscape:zoom="0.98119658"
     inkscape:cx="155.63331"
     inkscape:cy="-15.827502"
     inkscape:document-units="px"
     inkscape:current-layer="layer1"
     showgrid="true"
     units="px"
     showguides="true"
     inkscape:pagecheckerboard="true"
     inkscape:snap-page="false"
     inkscape:snap-center="false"
     inkscape:snap-grids="true"
     inkscape:snap-to-guides="false"
     inkscape:snap-object-midpoints="true"
     inkscape:window-width="1680"
     inkscape:window-height="987"
     inkscape:window-x="1912"
     inkscape:window-y="28"
     inkscape:window-maximized="1"
     inkscape:snap-others="true"
     inkscape:object-nodes="false"
     inkscape:snap-intersection-paths="false"
     inkscape:object-paths="false">
    <inkscape:grid
       type="xygrid"
       id="grid3709"
       spacingx="0.26458332"
       empspacing="128"
       dotted="false" />
  </sodipodi:namedview>
  <metadata
     id="metadata5">
    <rdf:RDF>
      <cc:Work
         rdf:about="">
        <dc:format>image/svg+xml</dc:format>
        <dc:type
           rdf:resource="http://purl.org/dc/dcmitype/StillImage" />
        <dc:title></dc:title>
      </cc:Work>
    </rdf:RDF>
  </metadata>
  <g
     inkscape:label="Ebene 1"
     inkscape:groupmode="layer"
     id="layer1"
     transform="translate(0,-229.26668)">
    <rect
       style="fill:none;stroke-width:0.26458332"
       id="rect3717"
       width="33.866665"
       height="33.866665"
       x="0"
       y="263.13333" />
    <rect
       style="fill:none;stroke-width:0.26458332"
       id="rect3722"
       width="33.866665"
       height="33.866665"
       x="0"
       y="263.13333" />
    <rect
       style="fill:none;stroke-width:0.26458332"
       id="rect3724"
       width="67.73333"
       height="33.866665"
       x="-33.866665"
       y="263.13333" />
    <rect
       style="fill:none;stroke-width:0.26458332"
       id="rect3726"
       width="33.866665"
       height="33.866665"
       x="-33.866665"
       y="229.26668" />
    <path
       style="fill:#ffffff;stroke-width:1.05580342"
       d="M 129.91406 38.046875 C 127.24563 38.027977 123.40101 38.080852 122.39062 38.173828 C 119.25683 38.458427 117.07478 38.985802 115.92773 39.734375 L 115.43555 40.054688 L 114.23242 52.9375 C 113.77977 57.786825 113.59748 59.818663 113.4082 61.919922 A 67.57153 67.57153 0 0 0 91.576172 70.943359 C 89.821469 69.479964 88.398223 68.290971 84.658203 65.189453 L 74.699219 56.931641 L 74.123047 57.050781 C 72.782641 57.332734 70.868316 58.502863 68.451172 60.517578 C 67.411987 61.383581 62.856971 65.860098 61.566406 67.283203 C 59.286606 69.797647 57.829103 71.895231 57.267578 73.466797 C 57.140888 73.820561 57.030328 74.244361 57.021484 74.408203 L 57.003906 74.707031 L 65.138672 84.507812 C 68.252056 88.258871 69.534769 89.813869 70.976562 91.556641 A 67.57153 67.57153 0 0 0 61.900391 113.41016 C 59.62485 113.61614 57.777173 113.78096 52.939453 114.23242 L 40.058594 115.43555 L 39.736328 115.92773 C 38.987755 117.07478 38.460342 119.25683 38.175781 122.39062 C 38.053325 123.7378 37.998065 130.12215 38.091797 132.04102 C 38.257718 135.43106 38.709611 137.94674 39.423828 139.45508 C 39.584458 139.79486 39.806409 140.17281 39.916016 140.29492 L 40.115234 140.51758 L 52.796875 141.69531 C 57.650956 142.14625 59.658238 142.33796 61.910156 142.55078 A 67.571526 67.571526 0 0 0 70.943359 164.42383 C 69.479858 166.17844 68.28898 167.60173 65.1875 171.3418 L 56.931641 181.30078 L 57.050781 181.87695 C 57.332545 183.21732 58.502867 185.13167 60.517578 187.54883 C 61.383589 188.58801 65.858126 193.14304 67.28125 194.43359 C 69.795694 196.7134 71.895209 198.17285 73.466797 198.73438 C 73.820636 198.86099 74.244327 198.96982 74.408203 198.97852 L 74.707031 198.99414 L 84.505859 190.85938 C 88.256314 187.7465 89.812254 186.46296 91.554688 185.02148 A 67.571526 67.571526 0 0 0 113.41016 194.09961 C 113.61599 196.37515 113.78086 198.22283 114.23242 203.06055 L 115.43555 215.94141 L 115.92773 216.26562 C 117.07478 217.0142 119.25683 217.53966 122.39062 217.82422 C 123.7378 217.94668 130.12215 218.00194 132.04102 217.9082 C 135.43106 217.74228 137.94674 217.29039 139.45508 216.57617 C 139.79486 216.41554 140.17281 216.19359 140.29492 216.08398 L 140.51758 215.88477 L 141.69531 203.20312 C 142.1471 198.33967 142.3394 196.32948 142.55273 194.07227 A 67.571526 67.571526 0 0 0 143.45312 193.82617 A 67.571526 67.571526 0 0 0 143.45703 193.82422 A 67.571526 67.571526 0 0 0 164.35352 184.94727 C 166.008 186.31557 167.69413 187.70733 171.49414 190.86133 L 181.29492 198.99805 L 181.5918 198.97852 C 181.75564 198.97096 182.17931 198.85904 182.5332 198.73242 C 184.10479 198.1709 186.20433 196.71149 188.71875 194.43164 C 189.07399 194.10849 189.61923 193.58423 190.25195 192.95898 C 192.15217 191.08547 194.83372 188.32904 195.48242 187.54883 C 197.49711 185.13167 198.66745 183.21732 198.94922 181.87695 L 199.07031 181.30273 L 190.8125 171.3418 C 187.67047 167.55284 186.34837 165.97047 184.98242 164.33398 A 67.571526 67.571526 0 0 0 193.92188 142.56641 C 196.07038 142.36299 198.25975 142.15472 203.20508 141.69531 L 215.88867 140.51758 L 216.08594 140.29492 C 216.19554 140.17284 216.41742 139.79486 216.57812 139.45508 C 217.29234 137.94674 217.74427 135.43106 217.91016 132.04102 C 217.93283 131.56132 217.94783 130.80357 217.95312 129.91406 C 217.97202 127.24564 217.91915 123.40101 217.82617 122.39062 C 217.54157 119.25683 217.0142 117.07478 216.26562 115.92773 L 215.94531 115.43555 L 203.0625 114.23242 C 198.09824 113.76906 196.01777 113.58247 193.86719 113.38867 A 67.571526 67.571526 0 0 0 191.84766 106.31445 A 67.57153 67.57153 0 0 0 191.20898 104.56836 A 67.571526 67.571526 0 0 0 189.63086 100.64844 A 67.57153 67.57153 0 0 0 187.92969 97.132812 A 67.571526 67.571526 0 0 0 186.9043 95.173828 A 67.57153 67.57153 0 0 0 184.86719 91.742188 C 186.25257 90.067049 187.66438 88.357552 190.86133 84.505859 L 198.99805 74.703125 L 198.98047 74.40625 C 198.97178 74.242218 198.86099 73.818797 198.73438 73.464844 C 198.17284 71.893278 196.71339 69.793741 194.43359 67.279297 C 194.11062 66.924256 193.58365 66.380207 192.95898 65.748047 C 191.08548 63.847814 188.32902 61.166296 187.54883 60.517578 C 185.13166 58.502901 183.21736 57.332545 181.87695 57.050781 L 181.30078 56.929688 L 171.3418 65.1875 C 167.54241 68.338127 165.95539 69.66543 164.31445 71.035156 A 67.57153 67.57153 0 0 0 142.5625 62.025391 C 142.36012 59.887954 142.1521 57.712177 141.69531 52.794922 L 140.51758 40.111328 L 140.29492 39.914062 C 140.17281 39.804456 139.79486 39.582618 139.45508 39.421875 C 137.94674 38.707658 135.43106 38.255765 132.04102 38.089844 C 131.5613 38.067167 130.80354 38.052166 129.91406 38.046875 z M 128 88.681641 A 40.758799 40.758907 0 0 1 168.75977 129.44141 A 40.758799 40.758907 0 0 1 128 170.19922 A 40.758799 40.758907 0 0 1 87.240234 129.44141 A 40.758799 40.758907 0 0 1 128 88.681641 z "
       transform="matrix(0.26458332,0,0,0.26458332,0,229.26668)"
       id="path3933-7-2" />
  </g>
</svg>
